<svg width="83" height="83" viewBox="0 0 83 83" fill="none" xmlns="http://www.w3.org/2000/svg">
<path d="M36.6367 23.668C37.5316 23.668 38.2578 22.9417 38.2578 22.0469C38.2578 21.152 37.5316 20.4258 36.6367 20.4258C35.7419 20.4258 35.0156 21.152 35.0156 22.0469C35.0156 22.9417 35.7419 23.668 36.6367 23.668Z" fill="black"/>
<path d="M36.6367 17.1836C37.532 17.1836 38.2578 16.4578 38.2578 15.5625V8.10547C38.2578 7.21014 37.532 6.48438 36.6367 6.48438C35.7414 6.48438 35.0156 7.21014 35.0156 8.10547V15.5625C35.0156 16.4578 35.7414 17.1836 36.6367 17.1836Z" fill="black"/>
<path d="M30.1523 23.668C31.0477 23.668 31.7734 22.9422 31.7734 22.0469V8.10547C31.7734 7.21014 31.0477 6.48438 30.1523 6.48438C29.257 6.48438 28.5312 7.21014 28.5312 8.10547V22.0469C28.5312 22.9422 29.257 23.668 30.1523 23.668Z" fill="black"/>
<path d="M12.4012 37.2736C10.2583 39.4166 9.07812 42.2665 9.07812 45.2982V81.3789C9.07812 82.2742 9.80389 83 10.6992 83H39.8789C40.7742 83 41.5 82.2742 41.5 81.3789V71.8021C47.3638 69.3527 51.2266 63.619 51.2266 57.1841V56.0898H62.5742C63.4695 56.0898 64.1953 55.3641 64.1953 54.4688V12.9688H67.4375C71.0198 12.9688 73.9219 10.0672 73.9219 6.48438C73.9219 2.90889 71.013 0 67.4375 0H18.8047C15.2224 0 12.3203 2.9016 12.3203 6.48438C12.3203 10.0599 15.2292 12.9688 18.8047 12.9688H22.0469V27.6278L12.4012 37.2736ZM47.9844 57.1841C47.9844 62.6186 44.5211 67.424 39.3663 69.1418C38.7044 69.3624 38.2578 69.9818 38.2578 70.6797V79.7578H12.3203V45.2982C12.3203 43.1324 13.1633 41.0967 14.6938 39.5662L22.0469 32.2131V41.386L21.1794 42.2536C20.5464 42.8867 20.5464 43.9132 21.1794 44.5462C21.8125 45.1792 22.8389 45.1792 23.472 44.5462C25.8357 42.1822 31.9973 36.0194 34.8516 33.1648C36.6614 31.3565 39.4506 31.0196 41.3406 32.3822C43.8974 34.2227 44.0312 37.7407 41.9747 39.7959C41.9747 39.7959 35.4408 46.3297 32.4044 49.3728C31.1231 50.6566 30.67 52.5113 31.2229 54.2167C31.582 55.3159 31.7734 56.5066 31.7734 57.7109C31.7734 60.9609 30.3697 64.063 27.9225 66.2218C27.2511 66.814 27.1869 67.8386 27.7792 68.5098C28.3696 69.179 29.3938 69.2471 30.0672 68.6532C33.212 65.8791 35.0156 61.8909 35.0156 57.7109C35.0156 57.1684 34.9837 56.6271 34.924 56.0898H47.9844V57.1841ZM47.9844 52.8477V3.24219H54.4688V52.8477H47.9844ZM34.2396 52.8477C34.2143 52.419 34.3751 51.988 34.6993 51.6631C37.7353 48.6207 44.2672 42.0886 44.267 42.0889C44.4345 41.9216 44.5914 41.7462 44.7422 41.5666V52.8477H34.2396ZM44.7422 31.1539C44.3051 30.6322 43.802 30.1592 43.2359 29.7516C40.0712 27.4701 35.4817 27.9517 32.5593 30.8719L25.2891 38.1434V28.3002C25.2891 28.2998 25.2891 28.2991 25.2891 28.2986V3.24219H44.7422V31.1539ZM60.9531 52.8477H57.7109V3.24219H60.9531V52.8477ZM70.6797 6.48438C70.6797 8.27503 69.2282 9.72656 67.4375 9.72656H64.1953V3.24219H67.4375C69.2252 3.24219 70.6797 4.69663 70.6797 6.48438ZM18.8047 9.72656C17.0169 9.72656 15.5625 8.27212 15.5625 6.48438C15.5625 4.69372 17.014 3.24219 18.8047 3.24219H22.0469V9.72656H18.8047Z" fill="black"/>
</svg>
