<svg width="80" height="80" viewBox="0 0 80 80" fill="none" xmlns="http://www.w3.org/2000/svg">
<circle cx="40" cy="40" r="39" stroke="#F0BC11" stroke-width="2"/>
<path d="M28.3115 39.7506L28.0127 40.0166C28.1066 40.1221 28.2493 40.1703 28.388 40.1432C28.5268 40.1162 28.6409 40.0179 28.6883 39.8848L28.3115 39.7506ZM40.9344 32.0142L40.951 31.6146L40.9344 32.0142ZM51.4918 39.106L51.8545 38.9373C51.8487 38.9247 51.8421 38.9124 51.835 38.9005L51.4918 39.106ZM51.8361 46.8424L52.2015 47.005L51.8361 46.8424ZM48.9672 52V52.4C49.0814 52.4 49.1901 52.3512 49.266 52.2659L48.9672 52ZM46.0984 52L45.7119 52.1032C45.7586 52.2782 45.9172 52.4 46.0984 52.4V52ZM34.623 52V52.4C34.781 52.4 34.9242 52.307 34.9884 52.1626L34.623 52ZM31.1803 52L30.7823 52.0394C30.8025 52.244 30.9747 52.4 31.1803 52.4V52ZM29.459 47.4871L29.1602 47.2212L29.459 47.4871ZM22 46.1977L21.6673 45.9756C21.6122 46.0582 21.5898 46.1582 21.6043 46.2564L22 46.1977ZM24.8689 40.3954L25.2343 40.558L25.2343 40.558L24.8689 40.3954ZM25.4426 35.8825L25.716 35.5905C25.6148 35.4957 25.4717 35.4601 25.3379 35.4964C25.2041 35.5327 25.0986 35.6357 25.0591 35.7687L25.4426 35.8825ZM52.583 43.6189L52.1835 43.5985L52.583 43.6189ZM55.2787 40.3954L55.5185 40.0752L55.5185 40.0752L55.2787 40.3954ZM55.2787 44.2493L55.4713 44.5999L55.4713 44.5999L55.2787 44.2493ZM57.4 41.6705C57.4 41.4496 57.2209 41.2705 57 41.2705C56.7791 41.2705 56.6 41.4496 56.6 41.6705H57.4ZM36.7726 35.5534C36.5908 35.679 36.5453 35.9282 36.671 36.1099C36.7966 36.2916 37.0457 36.3371 37.2274 36.2115L36.7726 35.5534ZM42.7775 36.2149C42.9611 36.3377 43.2095 36.2885 43.3324 36.1049C43.4553 35.9213 43.4061 35.6729 43.2225 35.55L42.7775 36.2149ZM28.6883 39.8848C29.7893 36.7921 33.6597 32.1127 40.9178 32.4139L40.951 31.6146C33.2748 31.296 29.1287 36.2622 27.9346 39.6165L28.6883 39.8848ZM40.9178 32.4139C44.0162 32.5424 46.5676 34.2425 48.365 35.9508C49.2603 36.8017 49.9586 37.6453 50.4328 38.276C50.6696 38.5911 50.85 38.8523 50.9705 39.0336C51.0308 39.1243 51.076 39.1949 51.1058 39.2423C51.1207 39.266 51.1318 39.2839 51.1389 39.2956C51.1425 39.3014 51.1451 39.3056 51.1467 39.3083C51.1475 39.3096 51.1481 39.3106 51.1484 39.3111C51.1486 39.3113 51.1486 39.3115 51.1487 39.3116C51.1487 39.3116 51.1487 39.3115 51.1487 39.3116C51.1486 39.3115 51.1486 39.3114 51.4918 39.106C51.835 38.9005 51.8349 38.9004 51.8348 38.9002C51.8348 38.9001 51.8347 38.8999 51.8346 38.8998C51.8343 38.8994 51.8341 38.8989 51.8337 38.8984C51.833 38.8972 51.8321 38.8957 51.8309 38.8937C51.8286 38.8898 51.8252 38.8843 51.8208 38.8772C51.8121 38.863 51.7995 38.8426 51.7829 38.8162C51.7497 38.7635 51.7009 38.6873 51.6368 38.5909C51.5087 38.3981 51.3194 38.1241 51.0722 37.7953C50.5783 37.1383 49.851 36.2593 48.9161 35.3709C47.0531 33.6004 44.3258 31.7546 40.951 31.6146L40.9178 32.4139ZM51.4706 46.6798C50.0996 49.7608 49.0102 51.35 48.6684 51.7341L49.266 52.2659C49.6892 51.7904 50.8185 50.1131 52.2015 47.005L51.4706 46.6798ZM48.9672 51.6H46.0984V52.4H48.9672V51.6ZM46.4848 51.8968C46.1848 50.773 45.5589 49.4215 44.561 48.3436C43.557 47.259 42.1653 46.4424 40.3607 46.4424V47.2424C41.8977 47.2424 43.088 47.9301 43.974 48.8871C44.866 49.8507 45.4382 51.078 45.7119 52.1032L46.4848 51.8968ZM40.3607 46.4424C38.4725 46.4424 37.0794 47.507 36.1076 48.6829C35.1368 49.8577 34.5442 51.193 34.2575 51.8374L34.9884 52.1626C35.2754 51.5176 35.8304 50.2741 36.7243 49.1925C37.6173 48.1119 38.8062 47.2424 40.3607 47.2424V46.4424ZM34.623 51.6H31.1803V52.4H34.623V51.6ZM31.5784 51.9606C31.4819 50.9845 31.2782 49.5706 30.9767 48.521C30.8304 48.0119 30.6436 47.5216 30.3936 47.2265C30.2658 47.0757 30.07 46.9154 29.8031 46.9058C29.53 46.8959 29.3145 47.0478 29.1602 47.2212L29.7578 47.753C29.833 47.6685 29.8375 47.7075 29.7743 47.7053C29.7173 47.7032 29.7214 47.6708 29.7832 47.7436C29.9121 47.8958 30.0623 48.2355 30.2078 48.7419C30.4896 49.7231 30.6875 51.0814 30.7823 52.0394L31.5784 51.9606ZM29.1602 47.2212C28.6498 47.7947 27.5744 48.4112 26.4348 48.8914C25.8747 49.1274 25.3167 49.3231 24.8324 49.4592C24.3389 49.5978 23.9516 49.6659 23.7213 49.6659V50.4659C24.0648 50.4659 24.5381 50.3728 25.0487 50.2294C25.5685 50.0834 26.1581 49.8761 26.7455 49.6286C27.901 49.1418 29.1207 48.4689 29.7578 47.753L29.1602 47.2212ZM23.7213 49.6659C23.6903 49.6659 23.5841 49.6406 23.416 49.4084C23.2584 49.1904 23.1049 48.8678 22.9642 48.4792C22.6847 47.7068 22.4889 46.7679 22.3957 46.139L21.6043 46.2564C21.7023 46.9169 21.9082 47.9121 22.212 48.7514C22.363 49.1687 22.5466 49.5714 22.7679 49.8773C22.9788 50.1688 23.2933 50.4659 23.7213 50.4659V49.6659ZM22.3327 46.4198C23.5049 44.6636 24.9554 41.1848 25.2343 40.558L24.5034 40.2327C24.2017 40.9108 22.7901 44.2934 21.6673 45.9756L22.3327 46.4198ZM25.2343 40.558C25.5579 39.8307 25.6037 38.9469 25.6273 38.1508C25.6521 37.3154 25.6536 36.5777 25.8261 35.9962L25.0591 35.7687C24.8491 36.4766 24.8507 37.3507 24.8276 38.127C24.8034 38.9427 24.7535 39.6706 24.5034 40.2327L25.2343 40.558ZM25.1692 36.1744C25.7054 36.6765 26.2566 37.4463 26.7595 38.1998C26.8839 38.3862 27.0041 38.5695 27.1195 38.7458C27.2346 38.9216 27.3455 39.0911 27.4498 39.2474C27.6545 39.554 27.8481 39.8317 28.0127 40.0166L28.6103 39.4847C28.488 39.3473 28.323 39.1145 28.1152 38.8033C28.0133 38.6506 27.9046 38.4844 27.7888 38.3076C27.6734 38.1314 27.5515 37.9453 27.4249 37.7556C26.9238 37.0048 26.3274 36.1629 25.716 35.5905L25.1692 36.1744ZM51.4918 39.106C51.1291 39.2746 51.1291 39.2746 51.1291 39.2745C51.1291 39.2745 51.1291 39.2745 51.1291 39.2745C51.1291 39.2745 51.1291 39.2746 51.1291 39.2746C51.1292 39.2748 51.1293 39.2751 51.1295 39.2756C51.13 39.2765 51.1307 39.278 51.1316 39.2802C51.1336 39.2844 51.1366 39.2911 51.1407 39.3C51.1488 39.3179 51.1609 39.3449 51.1764 39.3804C51.2075 39.4513 51.2522 39.5556 51.3058 39.6872C51.413 39.9508 51.5551 40.3224 51.694 40.753C51.9752 41.6248 52.2294 42.6967 52.1835 43.5985L52.9825 43.6392C53.0359 42.5884 52.7445 41.4038 52.4553 40.5074C52.309 40.0538 52.1597 39.6633 52.0468 39.3858C51.9903 39.2469 51.9428 39.136 51.9091 39.0592C51.8923 39.0208 51.8789 38.9909 51.8696 38.9704C51.865 38.9601 51.8613 38.9521 51.8588 38.9466C51.8575 38.9438 51.8565 38.9416 51.8558 38.9401C51.8554 38.9393 51.8552 38.9387 51.8549 38.9382C51.8548 38.938 51.8547 38.9378 51.8547 38.9376C51.8546 38.9376 51.8546 38.9375 51.8546 38.9374C51.8545 38.9374 51.8545 38.9373 51.4918 39.106ZM52.1835 43.5985C52.1326 44.5992 51.926 45.6565 51.4706 46.6798L52.2015 47.005C52.7037 45.8766 52.9275 44.7199 52.9825 43.6392L52.1835 43.5985ZM52.5168 44.0134C52.9637 44.0883 53.4707 43.9309 53.9156 43.7035C54.3742 43.469 54.8325 43.1266 55.2028 42.7426C55.5675 42.3643 55.8793 41.9118 55.9927 41.4488C56.0507 41.2121 56.0598 40.9593 55.9828 40.7125C55.9047 40.4619 55.7467 40.2462 55.5185 40.0752L55.0389 40.7155C55.1464 40.796 55.196 40.8764 55.2191 40.9505C55.2434 41.0284 55.2474 41.129 55.2156 41.2585C55.1497 41.5277 54.9438 41.8586 54.6269 42.1873C54.3155 42.5102 53.9282 42.7985 53.5514 42.9912C53.1608 43.1908 52.8428 43.2569 52.6491 43.2244L52.5168 44.0134ZM55.5185 40.0752C55.2505 39.8744 54.9423 39.7588 54.625 39.8373C54.3152 39.9139 54.1121 40.1479 53.9844 40.3806C53.7326 40.8394 53.642 41.5252 53.6534 42.1645C53.6649 42.811 53.7825 43.5053 54.0251 44.0003C54.1451 44.2452 54.3196 44.4904 54.5752 44.6274C54.8599 44.7799 55.1762 44.7621 55.4713 44.5999L55.0861 43.8988C54.9946 43.949 54.9671 43.9298 54.953 43.9222C54.9098 43.899 54.8304 43.8256 54.7434 43.6482C54.5721 43.2987 54.4636 42.7347 54.4533 42.1503C54.4427 41.5587 54.5345 41.0412 54.6857 40.7655C54.7596 40.6309 54.8131 40.6149 54.8171 40.6139C54.8196 40.6133 54.833 40.6099 54.8659 40.6194C54.9015 40.6299 54.9591 40.6557 55.0389 40.7155L55.5185 40.0752ZM55.4713 44.5999C56.1212 44.2428 56.5992 43.7013 56.914 43.1688C57.2238 42.6448 57.4 42.0871 57.4 41.6705H56.6C56.6 41.8986 56.4893 42.3151 56.2253 42.7617C55.9663 43.1998 55.5837 43.6254 55.0861 43.8988L55.4713 44.5999ZM37.2274 36.2115C38.1768 35.5552 39.0826 35.2456 39.9754 35.2456C40.8691 35.2456 41.7929 35.5559 42.7775 36.2149L43.2225 35.55C42.1415 34.8266 41.0653 34.4456 39.9754 34.4456C38.8846 34.4456 37.8232 34.8272 36.7726 35.5534L37.2274 36.2115Z" fill="#F0BC11"/>
<circle cx="42" cy="28" r="1.75" stroke="#F0BC11" stroke-width="0.5"/>
<ellipse cx="23.5709" cy="48.0259" rx="0.25" ry="1" transform="rotate(-19.5986 23.5709 48.0259)" fill="#F0BC11"/>
<circle cx="26.5" cy="43.5" r="0.5" fill="#F0BC11"/>
</svg>
