<svg width="100" height="100" viewBox="0 0 100 100" fill="none" xmlns="http://www.w3.org/2000/svg">
<path d="M45.457 35.6758C46.2009 35.6758 46.8047 35.072 46.8047 34.3281C46.8047 33.5842 46.2009 32.9805 45.457 32.9805C44.7131 32.9805 44.1094 33.5842 44.1094 34.3281C44.1094 35.072 44.7131 35.6758 45.457 35.6758Z" fill="white"/>
<path d="M45.457 30.2852C46.2013 30.2852 46.8047 29.6818 46.8047 28.9375V22.7383C46.8047 21.994 46.2013 21.3906 45.457 21.3906C44.7127 21.3906 44.1094 21.994 44.1094 22.7383V28.9375C44.1094 29.6818 44.7127 30.2852 45.457 30.2852Z" fill="white"/>
<path d="M40.0664 35.6758C40.8107 35.6758 41.4141 35.0724 41.4141 34.3281V22.7383C41.4141 21.994 40.8107 21.3906 40.0664 21.3906C39.3221 21.3906 38.7188 21.994 38.7188 22.7383V34.3281C38.7188 35.0724 39.3221 35.6758 40.0664 35.6758Z" fill="white"/>
<path d="M25.3094 46.9865C23.528 48.768 22.5469 51.1372 22.5469 53.6576V83.6523C22.5469 84.3967 23.1502 85 23.8945 85H48.1523C48.8967 85 49.5 84.3967 49.5 83.6523V75.6909C54.3747 73.6546 57.5859 68.8881 57.5859 63.5386V62.6289H67.0195C67.7638 62.6289 68.3672 62.0256 68.3672 61.2812V26.7812H71.0625C74.0406 26.7812 76.4531 24.3691 76.4531 21.3906C76.4531 18.4182 74.0349 16 71.0625 16H30.6328C27.6548 16 25.2422 18.4122 25.2422 21.3906C25.2422 24.363 27.6604 26.7812 30.6328 26.7812H33.3281V38.9677L25.3094 46.9865ZM54.8906 63.5386C54.8906 68.0565 52.0115 72.0513 47.7262 73.4793C47.176 73.6627 46.8047 74.1776 46.8047 74.7578V82.3047H25.2422V53.6576C25.2422 51.8571 25.943 50.1647 27.2153 48.8924L33.3281 42.7795V50.4053L32.607 51.1265C32.0807 51.6528 32.0807 52.5061 32.607 53.0324C33.1333 53.5586 33.9866 53.5586 34.5128 53.0324C36.4779 51.0671 41.6002 45.9438 43.973 43.5708C45.4775 42.0674 47.7963 41.7874 49.3675 42.9201C51.493 44.4502 51.6042 47.3748 49.8946 49.0833C49.8946 49.0833 44.4629 54.5151 41.9386 57.0449C40.8734 58.1121 40.4967 59.654 40.9564 61.0717C41.2549 61.9855 41.4141 62.9754 41.4141 63.9766C41.4141 66.6783 40.2471 69.2572 38.2127 71.0519C37.6545 71.5442 37.6011 72.3959 38.0936 72.954C38.5844 73.5103 39.4358 73.5669 39.9957 73.0731C42.61 70.767 44.1094 67.4515 44.1094 63.9766C44.1094 63.5255 44.0828 63.0755 44.0332 62.6289H54.8906V63.5386ZM54.8906 59.9336V18.6953H60.2812V59.9336H54.8906ZM43.4643 59.9336C43.4432 59.5773 43.5769 59.2189 43.8464 58.9489C46.3703 56.4196 51.8004 50.9893 51.8003 50.9896C51.9395 50.8505 52.07 50.7047 52.1953 50.5554V59.9336H43.4643ZM52.1953 41.899C51.832 41.4653 51.4137 41.0721 50.9431 40.7333C48.3122 38.8366 44.4968 39.237 42.0674 41.6646L36.0234 47.7095V39.5267C36.0234 39.5263 36.0234 39.5258 36.0234 39.5254V18.6953H52.1953V41.899ZM65.6719 59.9336H62.9766V18.6953H65.6719V59.9336ZM73.7578 21.3906C73.7578 22.8792 72.5511 24.0859 71.0625 24.0859H68.3672V18.6953H71.0625C72.5487 18.6953 73.7578 19.9044 73.7578 21.3906ZM30.6328 24.0859C29.1466 24.0859 27.9375 22.8768 27.9375 21.3906C27.9375 19.902 29.1442 18.6953 30.6328 18.6953H33.3281V24.0859H30.6328Z" fill="white"/>
<circle cx="50" cy="50" r="49.5" stroke="white"/>
</svg>
