<svg width="50" height="100" viewBox="0 0 116 114" fill="none" xmlns="http://www.w3.org/2000/svg">
<path d="M15.8528 83.2856L88.6469 9.21184M93.2755 4.50195L88.6469 9.21184M93.2755 4.50195C102.53 -5.15139 120.205 15.7123 111.79 23.3415M93.2755 4.50195L111.79 23.3415M111.79 23.3415L107.161 28.0514M34.2139 102.281L18.6069 106.64M34.2139 102.281L29.5471 97.532M34.2139 102.281L107.161 28.0514M18.6069 106.64L3 111L9.27338 97.1428M18.6069 106.64L9.27338 97.1428M9.27338 97.1428L15.5468 83.2856L20.2135 88.0344M24.8803 92.7832L29.5471 97.532M24.8803 92.7832L20.2135 88.0344M24.8803 92.7832L97.8994 18.627M29.5471 97.532L102.53 23.3392M20.2135 88.0344L93.2686 13.9148M107.161 28.0514L102.53 23.3392M88.6469 9.21184L93.2686 13.9148M93.2686 13.9148L97.8994 18.627M97.8994 18.627L102.53 23.3392" stroke="black" stroke-width="3"/>
</svg>
