<svg width="77" height="77" viewBox="0 0 77 77" fill="none" xmlns="http://www.w3.org/2000/svg">
<path d="M63.5405 40.6978C62.9216 40.6978 62.4199 41.1995 62.4199 41.8183C62.4199 42.6029 61.7817 43.2412 60.9971 43.2412C60.2127 43.2412 59.5742 42.6029 59.5742 41.8183C59.5742 41.1993 59.0725 40.6978 58.4537 40.6978C57.8348 40.6978 57.3331 41.1995 57.3331 41.8183C57.3331 43.8387 58.9769 45.4823 60.9971 45.4823C63.0173 45.4823 64.6611 43.8385 64.6611 41.8183C64.6611 41.1992 64.1594 40.6978 63.5405 40.6978Z" fill="white"/>
<path d="M74.059 40.8807L70.905 39.8704C70.501 39.7409 70.1826 39.4185 70.0535 39.0078C69.3887 36.8943 68.3856 34.9102 67.072 33.1103C66.4733 32.29 65.8075 31.5066 65.0802 30.7608C65.5455 28.7195 65.7985 26.4094 65.7657 24.4135C65.7188 21.5584 65.1482 19.8838 64.0214 19.2936C63.4146 18.9754 61.5678 18.0087 51.5718 22.5845C51.3351 22.6928 51.114 22.8262 50.9093 22.979C50.2354 22.7979 49.5466 22.6304 48.8536 22.48C48.7702 22.4618 48.6842 22.4457 48.6001 22.4279C49.4101 20.6584 49.8831 18.7366 49.9719 16.7527C49.9996 16.1342 49.5209 15.6106 48.9025 15.5831C48.2858 15.5524 47.7605 16.0339 47.7329 16.6523C47.5869 19.9145 46.2337 22.9838 43.9228 25.2948C42.542 26.6756 40.9254 27.6785 39.2023 28.3102C36.2142 27.8909 33.1706 27.8909 30.1825 28.3102C28.4593 27.6785 26.8428 26.6756 25.462 25.2948C22.9965 22.8293 21.6387 19.5513 21.6387 16.0645C21.6387 12.5775 22.9965 9.29959 25.462 6.83409C27.9275 4.36844 31.2058 3.01056 34.6924 3.01056C38.1791 3.01056 41.4573 4.36844 43.9228 6.83409C44.9136 7.82486 45.7323 8.9555 46.3563 10.1943C46.6346 10.7471 47.3085 10.9697 47.8612 10.6912C48.4141 10.4129 48.6365 9.73903 48.3581 9.18635C47.6268 7.73373 46.6677 6.40924 45.5078 5.24912C42.6189 2.36027 38.7779 0.769287 34.6926 0.769287C30.6072 0.769287 26.7662 2.36027 23.8774 5.24912C20.9885 8.13813 19.3975 11.979 19.3975 16.0643C19.3975 20.1497 20.9885 23.9907 23.8774 26.8795C24.7107 27.7128 25.6172 28.4294 26.5761 29.0298C26.5764 29.0298 26.5767 29.0296 26.577 29.0296C25.8803 29.2107 25.1888 29.414 24.5049 29.6426C23.918 29.8389 23.6013 30.4737 23.7975 31.0608C23.9936 31.6478 24.6287 31.9645 25.2155 31.7684C31.3268 29.7253 38.0583 29.7253 44.1696 31.7684C44.2875 31.8078 44.4072 31.8265 44.525 31.8265C44.9937 31.8265 45.4308 31.5299 45.5876 31.0608C45.7839 30.4738 45.4671 29.8389 44.8802 29.6426C44.1963 29.414 43.5048 29.2106 42.8081 29.0296C42.8084 29.0296 42.8087 29.0298 42.809 29.0298C43.768 28.4294 44.6744 27.7128 45.5078 26.8795C46.245 26.1423 46.8957 25.3372 47.4607 24.4817C47.7696 24.5417 48.0763 24.6045 48.3784 24.6701C48.7809 24.7575 49.1815 24.8513 49.5785 24.9498C49.566 24.9986 49.5533 25.0471 49.5429 25.0966C48.9964 27.6901 49.0319 29.9839 49.6483 31.9138C50.2023 33.6486 51.2023 35.054 52.62 36.0912C54.291 37.3136 56.3084 37.8416 58.1358 37.8416C59.5111 37.8416 60.779 37.5423 61.7102 37.0149C62.7636 36.4183 63.6461 35.1612 64.3446 33.2738C64.6675 33.6507 64.9736 34.0367 65.262 34.432C66.4316 36.0342 67.3245 37.8001 67.9158 39.6803C68.2631 40.7846 69.1251 41.6536 70.2216 42.005L73.3756 43.0154C74.2032 43.2805 74.7592 44.0422 74.7592 44.9112V50.141C74.7592 51.01 74.2032 51.7717 73.3756 52.0368L68.294 53.6645C67.481 53.9252 66.793 54.4838 66.3567 55.2379C64.3603 58.6882 61.2215 61.5433 57.0269 63.7242C56.5424 63.9764 56.2067 64.4274 56.1056 64.9619L54.4781 73.5797C54.4331 73.8172 54.2251 73.9894 53.9835 73.9894H48.6917C48.45 73.9894 48.242 73.817 48.197 73.5797L47.2956 68.817C47.1181 67.8799 46.2393 67.2574 45.2933 67.4007C43.0138 67.7454 40.665 67.9201 38.3125 67.9201C36.5622 67.9201 34.8344 67.8224 33.1766 67.6298C32.26 67.5244 31.4061 68.1492 31.2348 69.0543L30.3782 73.5797C30.3332 73.8172 30.1252 73.9894 29.8835 73.9894H24.5917C24.35 73.9894 24.1421 73.817 24.0965 73.5761L22.5294 65.4366C22.4285 64.9122 22.0992 64.4663 21.6253 64.2132C14.4751 60.3962 10.6958 54.019 10.6958 45.7716C10.6958 41.6046 11.6074 37.9198 13.4054 34.8194C15.0831 31.926 17.5336 29.5337 20.6886 27.7088C21.2243 27.3988 21.4074 26.7133 21.0975 26.1775C20.7877 25.6418 20.1023 25.4591 19.5664 25.7686C13.4487 29.3076 9.75885 34.7673 8.74296 41.7019V41.7017C8.63513 41.6919 8.52715 41.6826 8.41962 41.6715C8.43917 40.9233 8.30382 40.1683 8.00905 39.4356C7.35891 37.8195 6.02345 36.6531 4.60662 36.464C3.49012 36.3146 2.42761 36.7886 1.69024 37.7628C0.621113 39.1756 0.795416 40.2936 1.12973 40.9827C1.69415 42.1457 3.14497 42.9683 5.55257 43.4855C5.4864 43.5846 5.41361 43.6842 5.3339 43.7842C3.91136 45.5682 2.23541 45.9627 1.14718 45.9999C0.510125 46.0214 0 46.5329 0 47.1704V47.1758C0 47.8046 0.496139 48.3174 1.12432 48.3461C1.20478 48.3499 1.28885 48.3518 1.37638 48.3518C2.75335 48.3518 4.96334 47.844 7.08656 45.1816C7.42178 44.7614 7.69489 44.3181 7.90483 43.86C8.11628 43.8839 8.31946 43.9043 8.51406 43.9224C8.51406 43.9219 8.51406 43.9216 8.51421 43.9212C8.47602 44.5284 8.45481 45.1446 8.45481 45.7716C8.45481 50.4379 9.56725 54.5984 11.761 58.1382C13.7838 61.4017 16.6798 64.0738 20.3716 66.0833L21.8951 73.9963C22.1401 75.2908 23.2742 76.2305 24.5917 76.2305H29.8835C31.2011 76.2305 32.3352 75.2908 32.5802 73.9963L33.3547 69.9045C34.9633 70.0748 36.6287 70.1612 38.3123 70.1612C40.6223 70.1612 42.9296 70.0003 45.1782 69.6826L45.9947 73.9966C46.2399 75.2911 47.3739 76.2306 48.6914 76.2306H53.9832C55.3007 76.2306 56.4348 75.291 56.68 73.996L58.2646 65.6055C62.7415 63.2382 66.1159 60.1285 68.2963 56.3603C68.4535 56.0887 68.6954 55.8894 68.9776 55.799L74.059 54.1713C75.8181 53.6075 77 51.988 77 50.1407V44.9109C77 43.0638 75.8181 41.4442 74.059 40.8807ZM63.3563 27.5626C62.9249 31.2511 61.768 34.4062 60.6055 35.0647C59.2841 35.8132 56.2335 35.9577 53.943 34.2822C51.6499 32.6047 50.8866 29.5882 51.7356 25.5586C51.7356 25.5585 51.7356 25.5585 51.7356 25.5585C51.8209 25.1538 52.1084 24.8037 52.5047 24.6223C58.1148 22.0542 61.3493 21.2143 62.5509 21.2143C62.7323 21.2143 62.8673 21.2334 62.9573 21.2686C63.3182 21.6533 63.7916 23.8401 63.3563 27.5626ZM3.14632 40.0041C3.03037 39.765 3.30408 39.3446 3.47763 39.1151C3.7527 38.7518 4.00611 38.6775 4.19755 38.6775C4.23801 38.6775 4.27576 38.6808 4.31035 38.6855C4.82558 38.7542 5.54746 39.3212 5.9299 40.2718C6.01999 40.4956 6.13699 40.8663 6.16436 41.3286C4.61308 41.0072 3.40785 40.5438 3.14632 40.0041Z" fill="white"/>
<path d="M35.7806 14.78V10.77C37.1635 10.8688 37.6772 11.5009 38.1512 11.5009C38.7439 11.5009 39.0205 10.7503 39.0205 10.3749C39.0205 9.40685 37.1239 8.99207 35.7806 8.95252V8.41893C35.7806 8.18191 35.4842 7.9646 35.1879 7.9646C34.852 7.9646 34.615 8.18191 34.615 8.41893V8.99177C32.7382 9.18938 30.8615 10.1771 30.8615 12.6663C30.8615 15.1949 32.837 15.9061 34.615 16.5382V21.1806C32.5999 21.0226 32.0666 19.6397 31.4146 19.6397C30.9208 19.6397 30.506 20.2917 30.506 20.7659C30.506 21.7338 32.1654 23.0574 34.615 23.0969V23.7093C34.615 23.9463 34.8521 24.1636 35.1879 24.1636C35.4844 24.1636 35.7806 23.9463 35.7806 23.7093V23.0377C37.9142 22.7412 39.376 21.3979 39.376 18.9681C39.376 16.2815 37.4993 15.4121 35.7806 14.78ZM34.7335 14.4048C33.6864 14.0097 32.837 13.5949 32.837 12.469C32.837 11.4416 33.6272 10.9477 34.7335 10.8095V14.4048ZM35.662 21.1411V16.9728C36.6299 17.3876 37.4003 17.9408 37.4003 19.1852C37.4003 20.3115 36.7287 20.9436 35.662 21.1411Z" fill="white"/>
</svg>
