<svg xmlns="http://www.w3.org/2000/svg" height="67pt" version="1.1" viewBox="-8 0 67 67.982056" width="67pt">
<g id="surface1">
<path d="M 49.164062 44.554688 L 45.664062 43.121094 C 45.585938 43.0625 45.503906 43.011719 45.417969 42.972656 L 42.089844 41.652344 L 34.296875 38.46875 C 35.660156 37.152344 36.785156 35.609375 37.625 33.910156 C 38.597656 33.902344 39.539062 33.5625 40.285156 32.9375 C 42.394531 31.171875 43.3125 28.351562 42.640625 25.679688 C 42.332031 24.4375 41.425781 23.425781 40.222656 22.984375 C 40.054688 22.925781 39.878906 22.882812 39.703125 22.855469 C 39.703125 22.125 39.703125 21.445312 39.589844 20.800781 C 40.136719 20.636719 40.5 20.125 40.472656 19.554688 L 40.472656 13.332031 C 43.375 12.511719 44.542969 11.5625 45.167969 10.765625 C 45.828125 9.9375 46.050781 8.839844 45.773438 7.816406 L 45.773438 7.707031 C 45.238281 4.628906 37.058594 0 25.992188 0 C 14.925781 0 6.777344 4.667969 6.203125 7.839844 C 5.925781 8.871094 6.15625 9.960938 6.8125 10.792969 C 7.433594 11.585938 8.605469 12.535156 11.503906 13.355469 L 11.503906 19.582031 C 11.480469 20.148438 11.847656 20.660156 12.386719 20.824219 C 12.386719 21.476562 12.300781 22.148438 12.277344 22.882812 C 12.097656 22.90625 11.925781 22.949219 11.753906 23.007812 C 10.519531 23.429688 9.582031 24.449219 9.265625 25.71875 C 8.917969 27.027344 8.964844 28.410156 9.402344 29.6875 C 9.878906 31.277344 10.949219 32.613281 12.386719 33.425781 C 12.972656 33.730469 13.625 33.886719 14.28125 33.875 C 15.117188 35.570312 16.242188 37.113281 17.605469 38.429688 L 2.882812 44.554688 C 1.523438 44.699219 0.496094 45.84375 0.492188 47.207031 L 0.492188 65.308594 C 0.492188 66.785156 1.6875 67.980469 3.164062 67.980469 L 48.9375 67.980469 C 50.390625 67.949219 51.554688 66.761719 51.554688 65.308594 L 51.554688 47.207031 C 51.550781 45.84375 50.515625 44.699219 49.164062 44.554688 Z M 37.125 42.371094 L 41.136719 43.957031 L 43.511719 44.925781 L 43.261719 45.984375 L 36.875 43.496094 Z M 8.78125 9.285156 C 8.574219 9.035156 8.519531 8.679688 8.640625 8.378906 L 8.640625 8.203125 C 8.988281 6.796875 15.699219 2.554688 25.96875 2.554688 C 36.238281 2.554688 42.988281 6.796875 43.351562 8.179688 L 43.351562 8.351562 C 43.472656 8.65625 43.417969 9.003906 43.210938 9.261719 C 42.566406 10.082031 39.589844 12.0625 26.03125 12.621094 C 12.402344 12.0625 9.429688 10.082031 8.78125 9.285156 Z M 26.058594 15.136719 C 30.070312 15.039062 34.066406 14.644531 38.019531 13.96875 L 38.019531 18.734375 C 30.175781 20.980469 21.855469 20.980469 14.011719 18.734375 L 14.011719 13.929688 C 17.988281 14.613281 22.019531 15.011719 26.058594 15.113281 Z M 16.25 31.984375 C 15.980469 31.351562 15.246094 31.054688 14.613281 31.320312 C 14.609375 31.324219 14.597656 31.332031 14.59375 31.335938 L 14.480469 31.335938 C 14.195312 31.382812 13.898438 31.332031 13.648438 31.1875 C 12.789062 30.65625 12.164062 29.824219 11.890625 28.855469 C 11.609375 28.050781 11.570312 27.1875 11.78125 26.367188 C 11.875 25.910156 12.179688 25.523438 12.601562 25.320312 C 12.796875 25.257812 13.011719 25.257812 13.214844 25.320312 C 13.871094 25.511719 14.566406 25.140625 14.757812 24.480469 C 14.78125 24.398438 14.796875 24.308594 14.808594 24.222656 C 14.808594 23.214844 14.808594 22.320312 14.894531 21.484375 C 18.53125 22.398438 22.261719 22.863281 26.007812 22.867188 C 29.753906 22.863281 33.488281 22.398438 37.125 21.484375 C 37.125 22.320312 37.210938 23.214844 37.210938 24.222656 C 37.214844 24.914062 37.78125 25.464844 38.464844 25.460938 C 38.585938 25.460938 38.703125 25.441406 38.816406 25.40625 C 39.019531 25.34375 39.238281 25.34375 39.441406 25.40625 C 39.855469 25.613281 40.15625 26 40.25 26.453125 C 40.632812 28.140625 40.070312 29.902344 38.769531 31.046875 C 38.429688 31.355469 37.972656 31.496094 37.523438 31.433594 L 37.414062 31.433594 C 36.785156 31.152344 36.046875 31.433594 35.765625 32.058594 C 35.761719 32.066406 35.761719 32.074219 35.757812 32.078125 C 33.761719 36.710938 30.015625 39.546875 25.992188 39.546875 C 21.976562 39.546875 18.238281 36.675781 16.25 31.984375 Z M 15.328125 43.46875 L 8.941406 45.960938 L 8.679688 44.863281 L 15.066406 42.371094 Z M 23.742188 65.492188 L 24.988281 50.328125 L 27.167969 50.328125 L 28.414062 65.492188 Z M 23.855469 47.65625 L 23.855469 45.386719 C 23.855469 45.285156 23.9375 45.203125 24.042969 45.203125 L 28.089844 45.203125 C 28.191406 45.203125 28.273438 45.285156 28.273438 45.386719 L 28.273438 47.703125 C 28.273438 47.804688 28.191406 47.890625 28.089844 47.890625 L 24.042969 47.890625 C 23.941406 47.921875 23.835938 47.871094 23.808594 47.769531 C 23.792969 47.730469 23.792969 47.695312 23.808594 47.65625 Z M 49.0625 65.308594 C 49.0625 65.410156 48.980469 65.492188 48.875 65.492188 L 41.46875 65.492188 L 41.46875 62.191406 C 41.46875 61.507812 40.914062 60.945312 40.222656 60.945312 C 39.539062 60.945312 38.980469 61.507812 38.980469 62.191406 L 38.980469 65.492188 L 30.828125 65.492188 L 29.582031 49.84375 C 30.300781 49.34375 30.726562 48.527344 30.726562 47.65625 L 30.726562 45.386719 C 30.726562 43.910156 29.527344 42.710938 28.050781 42.710938 L 24.042969 42.710938 C 22.566406 42.683594 21.34375 43.859375 21.316406 45.335938 C 21.316406 45.351562 21.316406 45.371094 21.316406 45.386719 L 21.316406 47.703125 C 21.316406 48.578125 21.742188 49.398438 22.460938 49.894531 L 21.214844 65.542969 L 13.089844 65.542969 L 13.089844 62.191406 C 13.089844 61.507812 12.527344 60.945312 11.84375 60.945312 C 11.15625 60.945312 10.597656 61.507812 10.597656 62.191406 L 10.597656 65.492188 L 3.128906 65.492188 C 3.027344 65.492188 2.9375 65.410156 2.9375 65.308594 L 2.9375 47.207031 C 2.9375 47.101562 3.027344 47.019531 3.128906 47.019531 C 3.292969 47.023438 3.449219 46.992188 3.601562 46.929688 L 6.289062 45.835938 L 6.785156 47.953125 C 6.921875 48.523438 7.445312 48.925781 8.03125 48.910156 C 8.191406 48.910156 8.347656 48.882812 8.492188 48.824219 L 17.207031 45.386719 C 17.785156 45.164062 18.109375 44.546875 17.964844 43.941406 L 17.339844 41.316406 L 19.996094 40.234375 C 23.667969 42.570312 28.359375 42.570312 32.035156 40.234375 L 34.808594 41.367188 L 34.195312 43.941406 C 34.058594 44.546875 34.375 45.160156 34.945312 45.386719 L 43.660156 48.824219 C 43.804688 48.882812 43.964844 48.910156 44.121094 48.910156 C 44.714844 48.925781 45.230469 48.523438 45.363281 47.953125 L 45.851562 45.875 L 48.425781 46.929688 C 48.582031 46.992188 48.738281 47.023438 48.898438 47.019531 C 49.003906 47.019531 49.085938 47.101562 49.085938 47.207031 Z M 49.0625 65.308594 " style=" stroke:none;fill-rule:nonzero;fill:rgb(0%,0%,0%);fill-opacity:1;" />
</g>
</svg>