<svg width="100" height="100" viewBox="0 0 100 100" fill="none" xmlns="http://www.w3.org/2000/svg">
<path d="M74.5405 49.6978C73.9216 49.6978 73.4199 50.1995 73.4199 50.8183C73.4199 51.6029 72.7817 52.2412 71.9971 52.2412C71.2127 52.2412 70.5742 51.6029 70.5742 50.8183C70.5742 50.1993 70.0725 49.6978 69.4537 49.6978C68.8348 49.6978 68.3331 50.1995 68.3331 50.8183C68.3331 52.8387 69.9769 54.4823 71.9971 54.4823C74.0173 54.4823 75.6611 52.8385 75.6611 50.8183C75.6611 50.1992 75.1594 49.6978 74.5405 49.6978Z" fill="white"/>
<path d="M85.059 49.8807L81.905 48.8704C81.501 48.7409 81.1826 48.4185 81.0535 48.0078C80.3887 45.8943 79.3856 43.9102 78.072 42.1103C77.4733 41.29 76.8075 40.5066 76.0802 39.7608C76.5455 37.7195 76.7985 35.4094 76.7657 33.4135C76.7188 30.5584 76.1482 28.8838 75.0214 28.2936C74.4146 27.9754 72.5678 27.0087 62.5718 31.5845C62.3351 31.6928 62.114 31.8262 61.9093 31.979C61.2354 31.7979 60.5466 31.6304 59.8536 31.48C59.7702 31.4618 59.6842 31.4457 59.6001 31.4279C60.4101 29.6584 60.8831 27.7366 60.9719 25.7527C60.9996 25.1342 60.5209 24.6106 59.9025 24.5831C59.2858 24.5524 58.7605 25.0339 58.7329 25.6523C58.5869 28.9145 57.2337 31.9838 54.9228 34.2948C53.542 35.6756 51.9254 36.6785 50.2023 37.3102C47.2142 36.8909 44.1706 36.8909 41.1825 37.3102C39.4593 36.6785 37.8428 35.6756 36.462 34.2948C33.9965 31.8293 32.6387 28.5513 32.6387 25.0645C32.6387 21.5775 33.9965 18.2996 36.462 15.8341C38.9275 13.3684 42.2058 12.0106 45.6924 12.0106C49.1791 12.0106 52.4573 13.3684 54.9228 15.8341C55.9136 16.8249 56.7323 17.9555 57.3563 19.1943C57.6346 19.7471 58.3085 19.9697 58.8612 19.6912C59.4141 19.4129 59.6365 18.739 59.3581 18.1863C58.6268 16.7337 57.6677 15.4092 56.5078 14.2491C53.6189 11.3603 49.7779 9.76929 45.6926 9.76929C41.6072 9.76929 37.7662 11.3603 34.8774 14.2491C31.9885 17.1381 30.3975 20.979 30.3975 25.0643C30.3975 29.1497 31.9885 32.9907 34.8774 35.8795C35.7107 36.7128 36.6172 37.4294 37.5761 38.0298C37.5764 38.0298 37.5767 38.0296 37.577 38.0296C36.8803 38.2107 36.1888 38.414 35.5049 38.6426C34.918 38.8389 34.6013 39.4737 34.7975 40.0608C34.9936 40.6478 35.6287 40.9645 36.2155 40.7684C42.3268 38.7253 49.0583 38.7253 55.1696 40.7684C55.2875 40.8078 55.4072 40.8265 55.525 40.8265C55.9937 40.8265 56.4308 40.5299 56.5876 40.0608C56.7839 39.4738 56.4671 38.8389 55.8802 38.6426C55.1963 38.414 54.5048 38.2106 53.8081 38.0296C53.8084 38.0296 53.8087 38.0298 53.809 38.0298C54.768 37.4294 55.6744 36.7128 56.5078 35.8795C57.245 35.1423 57.8957 34.3372 58.4607 33.4817C58.7696 33.5417 59.0763 33.6045 59.3784 33.6701C59.7809 33.7575 60.1815 33.8513 60.5785 33.9498C60.566 33.9986 60.5533 34.0471 60.5429 34.0966C59.9964 36.6901 60.0319 38.9839 60.6483 40.9138C61.2023 42.6486 62.2023 44.054 63.62 45.0912C65.291 46.3136 67.3084 46.8416 69.1358 46.8416C70.5111 46.8416 71.779 46.5423 72.7102 46.0149C73.7636 45.4183 74.6461 44.1612 75.3446 42.2738C75.6675 42.6507 75.9736 43.0367 76.262 43.432C77.4316 45.0342 78.3245 46.8001 78.9158 48.6803C79.2631 49.7846 80.1251 50.6536 81.2216 51.005L84.3756 52.0154C85.2032 52.2805 85.7592 53.0422 85.7592 53.9112V59.141C85.7592 60.01 85.2032 60.7717 84.3756 61.0368L79.294 62.6645C78.481 62.9252 77.793 63.4838 77.3567 64.2379C75.3603 67.6882 72.2215 70.5433 68.0269 72.7242C67.5424 72.9764 67.2067 73.4274 67.1056 73.9619L65.4781 82.5797C65.4331 82.8172 65.2251 82.9894 64.9835 82.9894H59.6917C59.45 82.9894 59.242 82.817 59.197 82.5797L58.2956 77.817C58.1181 76.8799 57.2393 76.2574 56.2933 76.4007C54.0138 76.7454 51.665 76.9201 49.3125 76.9201C47.5622 76.9201 45.8344 76.8224 44.1766 76.6298C43.26 76.5244 42.4061 77.1492 42.2348 78.0543L41.3782 82.5797C41.3332 82.8172 41.1252 82.9894 40.8835 82.9894H35.5917C35.35 82.9894 35.1421 82.817 35.0965 82.5761L33.5294 74.4366C33.4285 73.9122 33.0992 73.4663 32.6253 73.2132C25.4751 69.3962 21.6958 63.019 21.6958 54.7716C21.6958 50.6046 22.6074 46.9198 24.4054 43.8194C26.0831 40.926 28.5336 38.5337 31.6886 36.7088C32.2243 36.3988 32.4074 35.7133 32.0975 35.1775C31.7877 34.6418 31.1023 34.4591 30.5664 34.7686C24.4487 38.3076 20.7588 43.7673 19.743 50.7019V50.7017C19.6351 50.6919 19.5271 50.6826 19.4196 50.6715C19.4392 49.9233 19.3038 49.1683 19.0091 48.4356C18.3589 46.8195 17.0234 45.6531 15.6066 45.464C14.4901 45.3146 13.4276 45.7886 12.6902 46.7628C11.6211 48.1756 11.7954 49.2936 12.1297 49.9827C12.6942 51.1457 14.145 51.9683 16.5526 52.4855C16.4864 52.5846 16.4136 52.6842 16.3339 52.7842C14.9114 54.5682 13.2354 54.9627 12.1472 54.9999C11.5101 55.0214 11 55.5329 11 56.1704V56.1758C11 56.8046 11.4961 57.3174 12.1243 57.3461C12.2048 57.3499 12.2888 57.3518 12.3764 57.3518C13.7534 57.3518 15.9633 56.844 18.0866 54.1816C18.4218 53.7614 18.6949 53.3181 18.9048 52.86C19.1163 52.8839 19.3195 52.9043 19.5141 52.9224C19.5141 52.9219 19.5141 52.9216 19.5142 52.9212C19.476 53.5284 19.4548 54.1446 19.4548 54.7716C19.4548 59.4379 20.5673 63.5984 22.761 67.1382C24.7838 70.4017 27.6798 73.0738 31.3716 75.0833L32.8951 82.9963C33.1401 84.2908 34.2742 85.2305 35.5917 85.2305H40.8835C42.2011 85.2305 43.3352 84.2908 43.5802 82.9963L44.3547 78.9045C45.9633 79.0748 47.6287 79.1612 49.3123 79.1612C51.6223 79.1612 53.9296 79.0003 56.1782 78.6826L56.9947 82.9966C57.2399 84.2911 58.3739 85.2306 59.6914 85.2306H64.9832C66.3007 85.2306 67.4348 84.291 67.68 82.996L69.2646 74.6055C73.7415 72.2382 77.1159 69.1285 79.2963 65.3603C79.4535 65.0887 79.6954 64.8894 79.9776 64.799L85.059 63.1713C86.8181 62.6075 88 60.988 88 59.1407V53.9109C88 52.0638 86.8181 50.4442 85.059 49.8807ZM74.3563 36.5626C73.9249 40.2511 72.768 43.4062 71.6055 44.0647C70.2841 44.8132 67.2335 44.9577 64.943 43.2822C62.6499 41.6047 61.8866 38.5882 62.7356 34.5586C62.7356 34.5585 62.7356 34.5585 62.7356 34.5585C62.8209 34.1538 63.1084 33.8037 63.5047 33.6223C69.1148 31.0542 72.3493 30.2143 73.5509 30.2143C73.7323 30.2143 73.8673 30.2334 73.9573 30.2686C74.3182 30.6533 74.7916 32.8401 74.3563 36.5626ZM14.1463 49.0041C14.0304 48.765 14.3041 48.3446 14.4776 48.1151C14.7527 47.7518 15.0061 47.6775 15.1976 47.6775C15.238 47.6775 15.2758 47.6808 15.3103 47.6855C15.8256 47.7542 16.5475 48.3212 16.9299 49.2718C17.02 49.4956 17.137 49.8663 17.1644 50.3286C15.6131 50.0072 14.4079 49.5438 14.1463 49.0041Z" fill="white"/>
<path d="M46.7806 23.78V19.77C48.1635 19.8688 48.6772 20.5009 49.1512 20.5009C49.7439 20.5009 50.0205 19.7503 50.0205 19.3749C50.0205 18.4068 48.1239 17.9921 46.7806 17.9525V17.4189C46.7806 17.1819 46.4842 16.9646 46.1879 16.9646C45.852 16.9646 45.615 17.1819 45.615 17.4189V17.9918C43.7382 18.1894 41.8615 19.1771 41.8615 21.6663C41.8615 24.1949 43.837 24.9061 45.615 25.5382V30.1806C43.5999 30.0226 43.0666 28.6397 42.4146 28.6397C41.9208 28.6397 41.506 29.2917 41.506 29.7659C41.506 30.7338 43.1654 32.0574 45.615 32.0969V32.7093C45.615 32.9463 45.8521 33.1636 46.1879 33.1636C46.4844 33.1636 46.7806 32.9463 46.7806 32.7093V32.0377C48.9142 31.7412 50.376 30.3979 50.376 27.9681C50.376 25.2815 48.4993 24.4121 46.7806 23.78ZM45.7335 23.4048C44.6864 23.0097 43.837 22.5949 43.837 21.469C43.837 20.4416 44.6272 19.9477 45.7335 19.8095V23.4048ZM46.662 30.1411V25.9728C47.6299 26.3876 48.4003 26.9408 48.4003 28.1852C48.4003 29.3115 47.7287 29.9436 46.662 30.1411Z" fill="white"/>
<circle cx="50" cy="50" r="49.5" stroke="white"/>
</svg>
