<svg height="512pt" viewBox="-78 0 512 512" width="512pt" xmlns="http://www.w3.org/2000/svg"><path d="m40 193h72v15h-72zm0 0"/><path d="m40 225h40v15h-40zm0 0"/><path d="m88 465h64v15h-64zm0 0"/><path d="m224 433h-209v-257h224v-56c0-12.957031-10.042969-23-23-23h-192c-12.957031 0-24 10.042969-24 23v368c0 12.957031 11.042969 24 24 24h192c12.957031 0 23-11.042969 23-24v-136h-15zm-209-313c0-4.6875 4.3125-8 9-8h192c4.6875 0 8 3.3125 8 8v41h-209zm201 377h-192c-4.6875 0-9-4.3125-9-9v-40h209v40c0 4.6875-3.3125 9-8 9zm0 0"/><path d="m80 401h16v15h-16zm0 0"/><path d="m112 401h16v15h-16zm0 0"/><path d="m144 401h16v15h-16zm0 0"/><path d="m224 80h15v-8h16v-39h-32v-9h33v-15h-17v-9h-15v9h-16v39h32v9h-32v15h16zm0 0"/><path d="m137.867188 228.722656 54.132812 54.386719v90.644531l40.046875-50.851562 51.105469 50.984375 72.519531-217.742188zm166.964843-39.761718-104.210937 81.054687-34.738282-34.738281zm-97.832031 94.707031 93.160156-72.457031-93.160156 119.035156zm69.722656 62.449219-34.738281-34.738282 81.054687-104.214844zm0 0"/></svg>